# xmcd CD database file
#
# Track frame offsets:
#	150
#	31065
#	86885
#	120875
#	165005
#	207505
#	257007
#
# Disc length: 4624 seconds
#
# Revision: 18
# Processed by: cddbd v1.5.2PL0 Copyright (c) Steve Scherf et al.
# Submitted via: CDex 1.70beta3
#
DISCID=4b120e07
DTITLE=ディープ・パープル - ライヴ・イン・ジャパン
DYEAR=1973
DGENRE=Hard Rock
TTITLE0=ハイウェイ・スター
TTITLE1=チャイルド・イン・タイム
TTITLE2=スモーク・オン・ザ・ウォーター
TTITLE3=ミュール
TTITLE4=ストレンジ・カインド・オブ・ウーマン
TTITLE5=レイジー
TTITLE6=スペース・トラッキン
EXTD=YEAR: 1973
EXTT0=
EXTT1=
EXTT2=
EXTT3=
EXTT4=
EXTT5=
EXTT6=
PLAYORDER=
